<?xml version="1.0" standalone="no"?>
<!DOCTYPE svg PUBLIC "-//W3C//DTD SVG 1.1//EN" "http://www.w3.org/Graphics/SVG/1.1/DTD/svg11.dtd" >
<!--
2013-9-30: Created.
-->
<svg>
<metadata>
Created by iconfont
</metadata>
<defs>

<font id="iconfont" horiz-adv-x="1024" >
  <font-face
    font-family="iconfont"
    font-weight="500"
    font-stretch="normal"
    units-per-em="1024"
    ascent="896"
    descent="-128"
  />
    <missing-glyph />
    
    <glyph glyph-name="huolieniao" unicode="&#58881;" d="M260.36 756.32s16 49.62 49.62 49.62 89.2-27.21 88.84-68C398 647.47 308.57 632.37 310 567.43c0.8-36.82 61.57-59.26 64.83-9.6 3.2 48.82-10.61 62.25 21.61 99.24 45.62 46.42 133.72 63.55 223.3 19.21 37.62-20 59.23-60.83 100-85.64s56.83-10.4 65.63-24S775 548.22 751 545s-20.81-3.2-56.83-12.81c-34.76-9.27-31.21-36.82-149.67-34.42 0 0-4-34.42-4-54.42s7.53-135.52 16-173.68c3.2-14.41-5.6-22.41-5.6-22.41 1.6-34.42-43.42-247.56-43.42-247.56s18.52-20.5 19.15-28.62c0.8-0.3 3.05-3.47 3.5-9-1.65 2.4-3.3 5-6.15 6.9-0.93 0.63-13.18 4.67-26.41 5.4-7.23 0.4-20.93 0.62-30.61-1.8-3.9-1.2-5.7-1.5-7.5-4.8-0.9 3.45 1.35 4.35 1.5 6.6-2.4 7.05-6.6 13.81-17.56 16.51-4.65 0.45-11.7-2.9-10.8-1.65 9.75 13.51 63.08 14.76 63.08 14.76s38.42 200.09 37.62 240.91c0 0-10.4 21.61-3.2 36 0 0-29.61 198.49-24 220.9 0 0-28 24.81-61.63 24S406 485 344.4 485.8s-81.94 51.06-78.4 84.83c6.4 61.63 108.47 107.29 110.45 156.87 0.8 20-13.61 26.41-27.21 26.41s-54.42-27.21-54.42-27.21zM260.36 756.32s-24.81-15.41-23.91-37.92 30-64.53 40.52-58.53-5.5 46.62 17.81 66.83zM260.08 738c-2.53 13.07-19.3-38.39-13.81-48.44 9.69-17.75 24-33.5 30.7-29.67 5.81 3.32 3.51 17.23 4.24 32.41 0.58 12.26-12.72 2.3-21.13 45.7zM567.7 582.24c41.62 1.6 59.63 26 72 25.61s13.21-20.81 10.8-26-24.41-54.82-93.64-46-83.24 57.23-75.63 70c5.59 9.36 44.85-25.21 86.47-23.61zM266.16 751.26s23.86 35.57 36.47 35.87 17.11-8 16.66-16.66S289.72 731 289.72 731zM291.9 760.49m-5.93 0a5.93 5.93 0 1 1 11.86 0 5.93 5.93 0 1 1-11.86 0Z"  horiz-adv-x="1024" />

    
    <glyph glyph-name="shu-" unicode="&#58882;" d="M212.06 262.51c35.65-113.16 481.39-205.46 602 56.32C877.61 456.8 719 833 533 825.22c-132-5.49-407-289.43-320.94-562.71zM363.47 299.85s74.41-80.23 115.75-96.76l-18.6-260.43h94S542.25 261 539.15 299.2c-0.26 3.26 89.91 123 89.91 123l-99-70-16.74 180.56S493.68 320.9 486.45 262z"  horiz-adv-x="1024" />

    
    <glyph glyph-name="huli-" unicode="&#58883;" d="M304.08 273.28s11.19-33.58 10-46-8.71-28.61-10-42.29-6.22-179.11-3.73-192.79 8.71-58.46 26.12-54.73 8.71 187.82 17.41 230.11 62.19 78.36 62.19 78.36l287.32-1.24s51-73.39 59.7-135.58 7.46-164.18 18.66-169.16 21.15 58.44 21.15 98.24 8.71 228.86-10 257.47-478.82-22.39-478.82-22.39zM215.1 474.49c18.36-97.91-46.91-281.48-51-338.59s25.55-158.45 63.23-183.57c30.6-20.4 28.56 7.14 11.22 37.73s-36.71 70.37-33.65 109.12 77.51 145.84 101 147.88 29.58-18.36 93.83-20.4 206.56 15.72 207 1c3.06-96.89 54.05-123.4 60.17-177.45s0-111.16 20.4-114.22 23.46 96.89 22.44 135.64-14.29 105.97-14.29 144.84c0 0 139.72-15.3 105 214.17 0 0 309.35 193.05 11.22 379.38-49 30.6-106.06 20.4-106.06 20.4s28.6-7.14 33.7-23.42c0 0-65.27 25.5-95.87 4.08 0 0 30.6 1 39.77-11.22 0 0-72.41 11.22-86.69-38.75 0 0 30.6 19.38 42.83 10.2 0 0-59.15-45.89-60.17-101C610.8 717.22 698.5 731.5 698.5 731.5s-13.26-5.1-32.64-21.42c0 0 376.32 21.42 123.4-261.08 0 0-185.61 20.4-293.72 17.34s-205-12.24-258 5.1-22.44 3.05-22.44 3.05zM97.6 775.79S161 726 168.5 692.45c0 0 77.12 31.1 115.68 31.1 0 0 13.68 110.7 34.83 108.21 0 0 38.56-28.61 47.27-85.82s16.16-233.84-111.96-333.35C103.82 464.83 81.43 624 82.68 662.6S97.6 775.79 97.6 775.79zM97.6 775.79S161 726 168.5 692.45c0 0 77.12 31.1 115.68 31.1 0 0 13.68 110.7 34.83 108.21 0 0 38.56-28.61 47.27-85.82 1.14-7.49 2.26-17 3.05-28.15-34.11-11.52-117.59-62.79-105.27-297.35 0.17-3.29-18.36 0.74-18.36-2.55-33.61 247.52-138.19 227.94-163 244.7 1.22 38.57 14.9 113.2 14.9 113.2zM106.24 583.87c11.56 18.15 67.56 12 54.05-15-14.29-19.67-22.1 11.22-54.05 15zM362.33 624.34c-18.18 11.51-66.25-17.87-42.53-36.59 21.27-11.75 15.2 19.59 42.53 36.59zM323.72 784.53s-19.89-31.36-17.59-48.19c0 0 29.07 9.18 37.48 8.41 0 0-6.12 26.01-19.89 39.78zM113.37 729.46s24.48-11.28 35.18-34.42c0 0-39.77-12.24-48.19-13 0.01-0.04-0.75 33.65 13.01 47.42zM255.42 404.76c12.12 1.77 21.86 16.62 19.34 26.1s-45.37 2.47-44.63-4.63c1.15-11.16 13.17-23.23 25.29-21.47z"  horiz-adv-x="1024" />

    
    <glyph glyph-name="niao-" unicode="&#58884;" d="M484.32 520.76C575.25 640.5 857.87 368.4 788.67 314.93c-94.76-73.21-491.01-39.99-304.35 205.83zM401.03 146.11l-4.85-133.8-77.69-21.37h66.36l19.42-35.27 4.86 35.27 40.46-6.14-38.84 25.89 8.09 114.91-17.81 20.51zM524.36 124.77l10.48-133.48-74.73-30.11 65.92 7.59 23.33-32.82 0.79 35.6 40.89-1.48-41.54 21.28-5.11 115.08-20.03 18.34zM224.73 631.23l-24-50.19a21.7 21.7 0 0 0-37.73-2.5l-31.57 48.27a21.7 21.7 0 0 0 17.41 33.57l55.61 1.92a21.7 21.7 0 0 0 20.28-31.07zM900.53 257.24c-18.3-86.91-221.86-208.13-478-171.54C150.46 124.56 26 614.12 315 792.44c161.25 99.49 326.71-5 356.8-130.37C713 490.53 583.15 361.42 749.57 287c86.91-38.91 164.43 34.33 150.96-29.76zM365.86 631.22m-32.45 0a32.45 32.45 0 1 1 64.9 0 32.45 32.45 0 1 1-64.9 0ZM512.24 530c137.48 60.86 253.34-314 166.92-327.31C560.81 184.44 230 405.08 512.24 530zM223.3 366c-9.34 2.6-17.2 12.8-23.94 31a195 195 0 0 0-7.64 27 7.28 7.28 0 0 0 14.3 2.79c4.79-24.5 15-46.44 21.91-46.93 1.12-0.08 11.43 0.5 27.23 45.51a7.28 7.28 0 1 0 13.74-4.82c-13.61-38.77-27-56.31-42-55.22a18.18 18.18 0 0 0-3.6 0.67zM340.8 305.64c-9.63-1.14-20.77 5.32-33.92 19.63a195 195 0 0 0-17.32 22.11 7.28 7.28 0 0 0 12.17 8c13.73-20.85 31.53-37.27 38.07-35.12 1.07 0.35 10.38 4.8 7.93 52.44a7.28 7.28 0 1 0 14.55 0.75c2.11-41-3.59-62.33-17.95-67a18.18 18.18 0 0 0-3.53-0.81zM261.5 236.29c-9 0.19-18.35 7.55-28.56 22.35a180.41 180.41 0 0 0-13 22.49 6.74 6.74 0 0 0 12.18 5.77c9.9-20.88 24.1-38.21 30.37-37.08 1 0.18 10.13 3.07 14 47a6.74 6.74 0 1 0 13.43-1.18c-3.34-37.87-11.31-56.66-25.07-59.12a16.82 16.82 0 0 0-3.35-0.23zM389.28 173.71c-9.26-2.85-21.38 1.51-36.89 13.22a195 195 0 0 0-21 18.64 7.28 7.28 0 0 0 10.53 10.06c17.25-18.05 37.7-31 43.75-27.71 1 0.54 9.35 6.59-1.61 53a7.28 7.28 0 1 0 14.17 3.35c9.44-40 7.65-62-5.63-69.16a18.18 18.18 0 0 0-3.32-1.4z"  horiz-adv-x="1024" />

    
    <glyph glyph-name="penzaixianrenzhang-" unicode="&#58885;" d="M385.86 248.23C341 289 261.3 512.84 322.21 640.45S497.47 798.68 577.57 762.6 730.33 547.15 725 442.41s-69.16-192.08-131.3-201.47-207.84 7.29-207.84 7.29zM372.65 596.77s-46.39-70.25 18.56-326.09L411.1 268s-50.38 242.61-38.45 328.77zM441.58 628.58s-41.09-111.35 17.23-357.9L478.7 268s-49.05 274.42-37.12 360.58zM513.16 633.88s-37.12-119.3 5.3-355.25l19.88-1.33s-10.6 251.87-25.18 356.58zM576.79 643.16s1.33-249.2-4-365.85l19.88-2.65s14.61 188.23-15.88 368.5zM633.79 618s87.49-141.83-1.47-340.67l-19.88-2.65S668.25 387.33 633.79 618zM561.54 722.7l-14.91 79.53 39.77-37.78 35.79 67.6 6.96-72.57 56.67 11.93-63.63-67.6-60.65 18.89zM331.78 232h370.44v-223.56a66.49 66.49 0 0 0-66.49-66.49H398.27a66.49 66.49 0 0 0-66.49 66.49V232zM261.83 287.86l510.34 0 0-73.21-510.34 0 0 73.21ZM735.57 214.66H298.43a36.71 36.71 0 0 0-36.6 36.6h510.34a36.71 36.71 0 0 0-36.6-36.6zM413.62 165.68c0.13-12.94-18.17-18.17-18.17-18.17s-18.17 5.1-18.17 18.17c0 10 10.46 14.38 18.17 3.4 5.88 11.76 18.07 6.63 18.17-3.4zM483.11 119.56c0.13-12.94-18.17-18.17-18.17-18.17s-18.17 5.1-18.17 18.17c0 10 10.46 14.38 18.17 3.4 5.88 11.76 18.06 6.63 18.17-3.4zM602.15 165.68c0.13-12.94-18.17-18.17-18.17-18.17s-18.17 5.1-18.17 18.17c0 10 10.46 14.38 18.17 3.4 5.88 11.76 18.02 6.63 18.17-3.4zM654.88 111.6c0.13-12.94-18.17-18.17-18.17-18.17s-18.17 5.1-18.17 18.17c0 10 10.46 14.38 18.17 3.4 5.88 11.77 18.06 6.64 18.17-3.4zM404.69 60.59c0.13-12.94-18.17-18.17-18.17-18.17s-18.17 5.1-18.17 18.17c0 10 10.46 14.38 18.17 3.4 5.88 11.76 18.06 6.63 18.17-3.4zM474.17-1.44c0.13-12.94-18.17-18.17-18.17-18.17s-18.17 5.1-18.17 18.17c0 10 10.46 14.38 18.17 3.4 5.89 11.76 18.07 6.63 18.17-3.4zM569.36 60.59c0.13-12.94-18.17-18.17-18.17-18.17S533 47.52 533 60.59c0 10 10.46 14.38 18.17 3.4 5.9 11.76 18.09 6.63 18.19-3.4zM653.9-1.44c0.13-12.94-18.17-18.17-18.17-18.17s-18.17 5.1-18.17 18.17c0 10 10.46 14.38 18.17 3.4 5.88 11.76 18.07 6.63 18.17-3.4z"  horiz-adv-x="1024" />

    
    <glyph glyph-name="shuye-" unicode="&#58886;" d="M512.61 129.53c-191.73 0-382.35-23.79-446.14 114.4-21.3 46.15 156.87-53.84 302.12-65.37C269.82 222.78 142.26 283.11 111 393.91 97.46 442 325 240.81 382.14 226.63c-42.61 38.46-223.06 198.32-168.49 294.18 25.18 44.22 184-242.27 184-242.27s-134.75 248.84-58.1 324.95c31 30.76 67.78-276.88 141.38-344.17 0 0-35.83 382.63 30 380.71s51.32-244.19 32-384.55C630 376.6 645.53 580.41 672.64 607.33s69.72-153.82-63.91-332.64c77.47 13.46 197.54 299.95 203.35 251.88 19-157.26-166.55-294.18-166.55-294.18 120.07 38.46 244 188.43 269.19 165.36s-112.33-186.51-292.43-225c211.1 1.92 338.27 127.59 337 84.6-3.78-125.01-254.95-127.82-446.68-127.82z"  horiz-adv-x="1024" />

    
    <glyph glyph-name="boluo-" unicode="&#58887;" d="M695.44 176.16c0-124.22-68.93-224.92-170.68-224.92s-184.25 100.7-184.25 224.92S419.48 436 510.4 434.58c103.68-1.58 185.04-134.2 185.04-258.42zM524.75-60.73c-112.15 0-203.39 109.49-203.39 244.06 0 85.86 36.29 179.28 90.3 232.46 30.5 30 64.74 45.55 99 45.1 120.16-1.84 203.89-147.75 203.89-277.56 0.03-139.13-81.55-244.06-189.8-244.06zM509 422.62c-29.59 0-54.62-18.49-70.48-34.11-47.18-46.45-78.88-128.91-78.88-205.18 0-113.47 74.06-205.78 165.1-205.78 86.39 0 151.54 88.47 151.54 205.78 0 109.48-72.6 237.85-166.2 239.28zM674.71 258.38c-61.29 5.1-217.43 124.33-235 137.91l23.39 30.31c63-48.62 177.1-126.93 214.82-130.07zM693.61 130.78c-86.13 8.29-302.68 168.9-327.09 187.22l23 30.64c64-47.9 243.9-173.57 307.8-179.71zM653.9 38.26C502 51.46 341 209.29 334.21 216l26.93 27.21c1.57-1.55 158-154.82 296.07-166.82zM603.9-30.41c-103.53 3.34-260.73 115.26-267.37 120l22.31 31.11c1.53-1.09 154.38-109.91 246.3-112.87zM360.44 264.76l-3.18 38.15C395 306.06 509.05 384.37 572.08 433l23.39-30.31c-17.6-13.59-173.74-132.83-235.03-137.93zM341.54 137.16l-3.66 38.12c63.92 6.14 243.86 131.8 307.8 179.71l23-30.64c-24.46-18.29-241.01-178.91-327.14-187.19zM381.26 44.63l-3.33 38.13C516 94.78 672.43 248 674 249.59l26.93-27.21c-6.78-6.71-167.78-164.53-319.67-177.75zM431.25-24L430 14.24c92 3 244.76 111.77 246.28 112.86l22.34-31.1c-6.62-4.77-163.84-116.69-267.37-120zM309.42 537.8s79.5-149.14 204.24-145.18S710 496.93 710 496.93s-84.64-13.63-138.72-59.34c0 0 125.35 82.06 139.41 169.17 0 0-124.38-62.58-158-139.42 0 0 120.69 189.74 123.18 266.51 0 0-95.8-59.15-116.88-173.33 0 0 25.29 152.39 17.17 268.21 0 0-58.08-88.29-58.92-265.86 0 0-32.46 118.56-67.79 174.11 0 0 14.47-121 49.94-234.91 0 0-55.59 105.06-130.37 148.11 0 0 49.55-125.85 96.16-176.09-0.04 0-89.74 65.48-155.76 63.71zM513.001414 324.000486l21.001072-21.001072-21.001072-21.001071-21.001071 21.001071 21.001071 21.001072ZM413.004172 264.372838l21.361695-21.361696-21.361695-21.361696-21.361696 21.361696 21.361696 21.361696ZM617.86488 264.195556l21.341376-19.0546-19.054599-21.341376-21.341377 19.0546 19.0546 21.341376ZM509.337126 195.891788l26.549468-21.23972-21.23972-26.549469-26.549468 21.239721 21.23972 26.549468ZM407.893077 134.885781l17.956455-15.802916-15.802916-17.956454-17.956455 15.802916 15.802916 17.956454ZM507.822227 74.232604l17.399977-13.050031-13.050031-17.399977-17.399977 13.050031 13.050031 17.399977ZM618.002828 134.530985l16.525086-16.525086-16.525086-16.525085-16.525085 16.525085 16.525085 16.525086ZM593.175826 375.73244l16.021948-11.445229-11.445229-16.021949-16.021948 11.44523 11.445229 16.021948ZM438.127356 379.784936l12.621843-16.933502-16.933502-12.621843-12.621843 16.933502 16.933502 12.621843ZM609.588986 34.52479l8.445-14.627169-14.627169-8.445-8.445 14.627169 14.627169 8.445Z"  horiz-adv-x="1024" />

    
    <glyph glyph-name="shuzhi-" unicode="&#58888;" d="M461.38 504.58l102.27 0 0-564.69-102.27 0 0 564.69ZM439.554082 731.479651l56.400501 5.520179 27.711942-283.137084-56.400501-5.520179-27.711942 283.137084ZM267.043388 478.290799l40.071742 40.071741 211.198653-211.198653-40.071741-40.071741-211.198654 211.198653ZM538.332201 175.946388l-40.071741 40.071742 211.198653 211.198653 40.071741-40.071741-211.198653-211.198654ZM613.190854 679.78101l50.12459-26.43888-128.541382-243.697319-50.12459 26.43888 128.541382 243.697319ZM697.789262 631.53474l17.881051-29.293863-142.432022-86.940877-17.88105 29.293863 142.432021 86.940877ZM499.257871 580.870034l-24.267905-24.267905-117.994908 117.994908 24.267905 24.267905 117.994908-117.994908ZM520.08516 194.017532l-17.16-29.721992-144.513659 83.435 17.16 29.721992 144.513659-83.435ZM652.57 738.02m-93.37 0a93.37 93.37 0 1 1 186.74 0 93.37 93.37 0 1 1-186.74 0ZM332.43 729.13m-93.37 0a93.37 93.37 0 1 1 186.74 0 93.37 93.37 0 1 1-186.74 0ZM274.63 509.03m-93.37 0a93.37 93.37 0 1 1 186.74 0 93.37 93.37 0 1 1-186.74 0ZM304.27 251.14m-93.37 0a93.37 93.37 0 1 1 186.74 0 93.37 93.37 0 1 1-186.74 0ZM746.69 396.39m-93.37 0a93.37 93.37 0 1 1 186.74 0 93.37 93.37 0 1 1-186.74 0ZM772.63 602.4m-93.37 0a93.37 93.37 0 1 1 186.74 0 93.37 93.37 0 1 1-186.74 0Z"  horiz-adv-x="1024" />

    
    <glyph glyph-name="shuye-1" unicode="&#58889;" d="M489.48-64.05h-1.11a16.09 16.09 0 0 0-15 17.15c14.21 208.64 37.28 768.64-25.82 853.19a16.1 16.1 0 0 0 25.81 19.25c81.69-109.47 37.45-796.64 32.13-874.63a16.1 16.1 0 0 0-16.01-14.96zM506.64 415.66h-0.08a12.88 12.88 0 0 0-11.62 7.49c-1 2.17-101.43 209.65-174 280.12-5.1 5-4.54 21 0.42 26.15a12.87 12.87 0 0 0 18.21 0.26c61.73-60 138.4-211.8 167.21-271.45 12.32 24.81 33.14 65.69 57 108.09 52.06 92.47 93.47 148.07 123.08 165.26a12.87 12.87 0 0 0 17.6-4.67c3.57-6.15 1-21.59-4.7-25.78C654.2 667.85 551.23 492.45 518.27 423a12.87 12.87 0 0 0-11.63-7.34zM504.49 338.39h-0.15a12.87 12.87 0 0 0-10.49 5.61c-1.52 2.22-156.56 209-219 267.51-8.59 8-5.9 21.39-1.41 26.9a12.87 12.87 0 0 0 18.11 1.87c59.63-48.44 177.39-215.11 213.21-266.71C522.51 398 560 449.06 599.22 499.49c113.11 145.43 130 144.39 140.07 143.65a12.87 12.87 0 0 0 12-13.7c-0.44-6.67-6.41-17.93-13.92-20.07-23.16-8.24-130.18-137.06-222.37-265.61a12.89 12.89 0 0 0-10.51-5.37z m233.1 279.06z m1.7 0.11zM502.34 276.15H502a12.86 12.86 0 0 0-9.28 4.33c-1.8 2-177.27 184.07-260.26 217.27-13.46 5.37-15.1 27.25-12.65 33.95a12.87 12.87 0 0 0 16.52 7.67c79.56-29.11 227.91-189 266.52-231.62 19.9 19.76 67.79 66.84 118 112.36 137.85 125 158.4 117 169.46 112.73 6.63-2.58 7.72-12.14 7.54-19.25-0.2-7.81-10.2-21.6-17.44-24-11.1-3.72-143.27-82.88-268.92-209.59a12.89 12.89 0 0 0-9.15-3.85zM502.34 218.2a12.88 12.88 0 0 0-8.38 3.09c-94.65 81-250.8 183.64-287.28 196.51-6.7 2.37-12.2 20.69-11.12 27.72a12.87 12.87 0 0 0 14.69 10.77c9.44-1.45 38.2-5.88 173.92-112 51.93-40.62 100.11-81 118.59-96.63 59.48 45.34 265.94 200.2 314.71 200.2h1a12.88 12.88 0 0 0 12.28-13.45c-0.32-7.11-7.66-18.85-15.28-20-27.58-4.06-176-94.26-305.26-193.56a12.85 12.85 0 0 0-7.87-2.65zM500.2 173.12a12.88 12.88 0 0 0-7.63 2.5c-2.24 1.65-218.81 150.42-317 154.72-12.87 0.56-19.07 20.79-18.77 27.9a12.8 12.8 0 0 0 13.4 12.33c96.36-4 289.68-139.62 330.33-168.89C549.38 234 764.15 372.42 840.7 364.07a12.88 12.88 0 0 0 11.42-14.19c-0.77-7.07-10.34-18.11-17.36-18.07-60.77 0.4-256.24-108.89-327.4-156.52a12.85 12.85 0 0 0-7.16-2.17zM500.2 138.78c-3.28 0-4.5 0.31-45.66 13.34-78.32 24.78-232.81 58.61-296.68 63.4-7.1 0.48-20.86 24.48-20.36 31.54a12.78 12.78 0 0 0 13.8 11.88c66.86-5 231.76-57.19 311-82.27 16.86-5.34 31.77-10.05 37.65-11.73 4.35 1.43 13.71 4.79 23.51 8.29 71.2 25.5 260.34 93.21 346.7 87.86a12.88 12.88 0 0 0 12-13.66c-0.44-7.09-12.86-25.64-20.1-25.08C781 227.45 602 174 532.16 149c-27.45-9.84-28.65-10.22-31.96-10.22zM498 104.44a12.9 12.9 0 0 0-2.85 0.32c-44.55 10.12-302.92 25.39-341.1 12-6.72-2.35-22.15 11-24.5 17.74a12.88 12.88 0 0 0 7.9 16.41c47.57 16.66 314.16-11.43 360.46-20.44 40.88 8.67 339.47 59.38 392.67 13.78a12.88 12.88 0 0 0 1.4-18.16c-4.63-5.4-24.67-9.6-36.34-1.95-40.08 26.26-282.14-2-354.63-19.36a12.8 12.8 0 0 0-3.01-0.34zM208.3 37.9a12.88 12.88 0 0 0-8.72 22.36c80.71 74.16 282.51 52.8 301.09 50.65 50.2 2.27 287.54 9.76 325.83-48.8a12.88 12.88 0 0 0-3.73-17.83c-6-3.89-22.21-1-27.84 4.61-16.22 16.22-96.2 45.36-294.13 36.23a14.43 14.43 0 0 0-2.14 0.08c-2.07 0.25-204.45 21.32-278.55-46.78-2.49-2.25-8.7-0.52-11.81-0.52z"  horiz-adv-x="1024" />

    
    <glyph glyph-name="shu-1" unicode="&#58890;" d="M637.69 107c46.82 14.7 73.85-24.35 135.43 22.21s71.34 128.41 63.08 153.2c-16.52 64.58-60.08 84.11-63 125.54-3 41.93 41.23 57.69 20.65 120.95-26.45 81.3-65.48 61.71-71.49 70.72s15.32 27-19.83 97.32c-24.78 49.56-41.3 36-57.82 54.07s-4.5 27.36-21.78 39c-25.53 17.27-18.77-3.75-60.08 9C527.56 810 505 841.85 469.74 829.09c-82.17-29.72-55.73-87.7-72.25-105.72s-43.39-14.43-58.41-31-30-61.58-30-76.6 3-52.57 0-61.58-26.13 2.1-44.16-15.92-5.42-29.74-21.92-53.77-57.4-30.89-57.73-92.5c-0.4-75.85 33.41-81.6 26.69-111.23-7.56-33.32-35.1-84-6.56-136.59S282 55.6 340.57 57.1s39 19.53 75.1 19.53 73.59-24 139.68-10.51 53.33 31.75 82.34 40.88zM646 291.4c5.32 0 16.52-1.5 18-20.53a39.16 39.16 0 0 0-10.26-30.16s-9.26 10.14-11.26 20.15c-3.03 15.71 4.52 23.78 3.52 30.54zM754 207.92c-2.75 4.55-7.27 14.91 8.23 26a39.16 39.16 0 0 0 31.12 6.84s-3.88-13.17-11.41-20.07c-11.87-10.69-22.67-8.41-27.94-12.77zM398.35 302.93c5-1.94 14.84-7.42 9.3-25.68a39.16 39.16 0 0 0-20.55-24.35s-4.93 12.82-3.15 22.87c2.93 15.72 12.87 20.5 14.4 27.16zM331.52 360.73c5.25 0.87 16.54 1.22 21.13-17.31a39.16 39.16 0 0 0-5.2-31.43s-10.79 8.49-14.41 18c-5.52 15.01 0.57 24.23-1.52 30.74zM248.41 184.5c5.25 0.87 16.54 1.22 21.13-17.31a39.16 39.16 0 0 0-5.2-31.43s-10.79 8.49-14.41 18c-5.52 15.05 0.57 24.24-1.52 30.74zM465.43 465.93c5.29-0.56 16.27-3.23 15.76-22.31a39.16 39.16 0 0 0-13.38-28.92s-8.14 11.06-9.08 21.22c-1.33 15.95 6.99 23.18 6.7 30.01zM380.65 568.06c5.29-0.56 16.27-3.23 15.76-22.31A39.16 39.16 0 0 0 383 516.84s-8.14 11.06-9.08 21.22c-1.31 15.94 7.01 23.17 6.73 30zM481.56 672.73c5.32-0.1 16.49-1.82 17.63-20.87a39.16 39.16 0 0 0-10.84-30s-9.07 10.31-10.88 20.36c-2.7 15.78 4.96 23.78 4.09 30.51zM538 617.68c5.28 0.67 16.58 0.59 20.46-18.1a39.16 39.16 0 0 0-6.39-31.21s-10.46 8.89-13.71 18.58c-4.93 15.2 1.5 24.15-0.36 30.73zM614.89 716.69c5.29-0.55 16.28-3.2 15.81-22.27a39.16 39.16 0 0 0-13.32-28.95s-8.17 11-9.13 21.2c-1.36 15.94 6.94 23.2 6.64 30.02zM665 665.47c5.29-0.55 16.28-3.2 15.81-22.27a39.16 39.16 0 0 0-13.32-28.95s-8.17 11-9.13 21.2c-1.36 15.94 6.89 23.2 6.64 30.02zM698.68 574.46c5.31 0.36 16.58-0.39 19.35-19.28a39.16 39.16 0 0 0-8.22-30.78s-9.92 9.5-12.59 19.35c-4.04 15.48 2.91 24.04 1.46 30.71zM637.09 549.88c4.72 2.46 15.35 6.3 25.47-9.88a39.16 39.16 0 0 0 4.83-31.49s-12.9 4.71-19.3 12.67c-9.92 12.54-6.99 23.16-11 28.7zM679.4 444.33c4.5-0.29 13.89-2.17 14.13-18.34a33.19 33.19 0 0 0-10.32-25s-7.28 9.08-8.43 17.65c-1.69 13.5 5.1 19.92 4.62 25.69zM736.92 523.11c4.17 1.7 13.44 4.11 20.71-10.34a33.19 33.19 0 0 0 1.6-27s-10.51 5-15.29 12.2c-7.38 11.42-4.07 20.16-7.02 25.14zM491.11 567.46c4.17 1.7 13.44 4.11 20.71-10.34a33.19 33.19 0 0 0 1.6-27s-10.51 5-15.29 12.2c-7.38 11.42-4.07 20.16-7.02 25.14zM259.52 400.78c-4.29 1.39-12.92 5.53-9.16 21.26a33.19 33.19 0 0 0 16.16 21.63s4.81-10.59 3.81-19.19c-1.68-13.48-9.85-17.99-10.81-23.7zM244.43 312c-3.22 2.06-9.43 7.3-3 19.41a28.15 28.15 0 0 0 17.89 14.3s1.69-9.73-1-16.57c-4.21-10.69-11.88-12.67-13.89-17.14zM296.62 293.21c-3.22 2.06-9.43 7.3-3 19.41a28.15 28.15 0 0 0 17.89 14.3s1.69-9.73-1-16.57c-4.21-10.67-11.88-12.66-13.89-17.14zM332 553.93c-2.4 3-6.61 9.93 3.36 19.35a28.15 28.15 0 0 0 21.52 7.86s-1.5-9.76-6.2-15.39c-7.46-8.75-15.36-8.22-18.68-11.82zM365.78 626.21c-2.4 3-6.61 9.93 3.36 19.35a28.15 28.15 0 0 0 21.52 7.86s-1.5-9.76-6.2-15.39c-7.46-8.77-15.35-8.21-18.68-11.82zM444.16 637.28c-3.79-0.48-11.92-0.42-14.71 13a28.15 28.15 0 0 0 4.55 22.45s7.52-6.39 9.86-13.35c3.6-10.93-1.02-17.38 0.3-22.1zM448.46 578c-3.54-1.45-11.39-3.52-17.59 8.72a28.15 28.15 0 0 0-1.42 22.86s8.93-4.21 13-10.32c6.28-9.65 3.5-17.07 6.01-21.26zM491.38 699.25c-3.77-0.63-11.89-0.88-15.2 12.44a28.15 28.15 0 0 0 3.73 22.6s7.76-6.1 10.36-13c3.98-10.76-0.39-17.36 1.11-22.04zM575.77 719.88c2.87-2.52 8.21-8.65 0-19.64a28.15 28.15 0 0 0-19.86-11.42s-0.19 9.87 3.48 16.23c5.83 9.95 13.72 10.71 16.38 14.83zM620.08 602.79c-3.81-0.37-11.93-0.08-14.33 13.42a28.15 28.15 0 0 0 5.23 22.3s7.34-6.6 9.47-13.63c3.25-11.02-1.56-17.32-0.37-22.09zM603.76 499c-3.81-0.37-11.93-0.08-14.33 13.42a28.15 28.15 0 0 0 5.23 22.3s7.34-6.6 9.47-13.63c3.25-11.01-1.56-17.31-0.37-22.09zM515.53 224.77s24.08 63.58 20.94 102.15-10.33 139-10.33 139h27.21l13-129.42 27 129.42 20-12.32s-22-86.09-31.06-150.68-17.77-129.68-17.9-146.7c0 0 29.24 14.12 57.11 28.59s59.93 56.09 71.94 56.81 20-18.31 20-22.31-57.79-53.07-76.46-63.08-41.7-14-58.72-36S546.48 56.1 547.91 4s4.43-68.09 4.43-68.09H469.9s0.34 111.14-4.67 157.2-5 83.36-12 114.77-39.48 106.62-56.79 128.59S309 420.18 296 465.93c-10 19.89 6 27.08 12 19.89s53.07-102.3 93.12-118.33c-10.49 41.05-56.07 101.13-52.07 109.14s25.91 13 34.48 5 1.56-22.72 29.6-59.42 40.34-47.93 63.73-93.38 38.67-104.06 38.67-104.06z"  horiz-adv-x="1024" />

    
    <glyph glyph-name="xiaolu-" unicode="&#58891;" d="M320.22 686.28c-8.28 4.5-57.5 34.31-65.54 60.1s14 85.18 30.05 82.58 9.46-36.68 20.82-58.21 16.09-42.35 17.27-57.26a188.45 188.45 0 0 0 0-28.16zM383.41 690.3c0 9.46-8.76 33.13-6.16 54.42s21.53 45.19 26 57.5 9.23 29.34 17 29.34 28.63-32.89 23.66-62.7-8.22-49.46-19.81-60.86-37.38-20.82-37.38-20.82zM372.71 228.25c12.51-30.2 8.52-128.72 11.36-153.33s7.57-54.89 7.57-78.56-7.1-37.15-3.19-45.67 19.88-20.23 25.91-10.65 0.71 128.44 0 142.3 2.85 38.71 2.85 51.84-5.33 39.75-5.69 53.24-0.35 29.81 12.78 36.56 50.4-11.36 70.27-10.29 46.14 16.68 50.4 14.55 0.35-12.07 7.81-22.71 18.46-25.2 23.42-40.11 16-48.27 21.3-55c2.48-3.9 1.77-6.39 1.77-6.39s-0.35-61-4.61-79.15-14.55-59.63-10.29-72 7.1-16.76 20.94-16.36 12.78 2.88 11.71 17.78-1 20.23 0.57 34.78 25.69 93.7 23.92 115.7-27.33 79.5-28.39 93.34 3.55 15.62 3.55 24.49 4.26 46.85 2.48 58.56-70.63 72.4-126.35 102.57-97.61 93.26-97.26 149.03 8.87 64.6 10.65 91.92-22 33-45.78 33-42.59-9.94-40.46-29.81 13.49-83.41 13.49-108.61-8.87-85.54-9.58-107.9-3.55-44-1.06-72.76 5.32-40.11 16-58.21 24.2-28.73 33.91-52.15zM461.25 251.86c9.43-12.86-31.94-107.19-29.81-140.55s9.62-74.53 15.46-99.38 8.91-63.18 15.54-67.43 10.89-7.1 14.44-3.55 14.2 12.07 14.2 17.75-12.07 25.55-17 39S457 85 457.7 100.66c1.77 4.08 0.89 1.77 2.66 5.15s60.28 90 68.8 119.31 4.73 24.61 10.41 34.07c4.73 7.1 59.63 15.14 66.72 13.25s54.42-74.53 67.91-92.28 52.53-78.79 54.66-89.44-1.42-14.91 0-23.42 6.39-39.75 7.81-57.5 1.42-51.11 6.39-58.21 12.78-9.94 24.84 0.71S753.7 75.11 748 122s2.13 33.36-3.55 54.66-20.59 13.49-32.65 43.3 5.68 107.19-7.1 146.23-18.46 37.62-18.46 37.62 83.76 80.92 3.55 159c-8.52 7.81-18.22-40.46-17.27-67.91s8-88.49 1.42-89.91-64.36-3.79-87.55-3.79-53.45 6.8-66.22 6.8-52.06-5.44-83.29 32.89-36.44 129.19-32.65 151-1.07 38.33-1.07 38.33-19.75-53-21.17-82.34-3.31-189.29 9.94-225.26S414 273.88 426 267.24c14-7.77 27.44-4.74 35.25-15.38zM307.35 650.43c-0.35 17.75 3.05 29.81 14.41 40.46 7.89 7.4 54.3 14.91 72.4-3.19s13.49-35.49 12.07-50.75-27-62.47-40.82-61.4-47.13 36.9-52.41 53.94-5.56 16.38-5.65 20.94zM379.57 586.9zM348.77 585.81zM376.34 626.78c-0.33 7.92 12.5 30.4 16.05 41.76a34.69 34.69 0 0 1 0 20.78c-19.18 16-63 8.74-70.63 1.58a47.43 47.43 0 0 1-6-6.74s2.08-13.13 9.89-20.94 16.68-13.64 20.23-26 2.87-51.41 2.87-51.42l29.66 1.09h1.15c0 0.15 0.45 10.7 0 19-0.37 6.61-2.98 15.2-3.22 20.89zM326.73 650.43s-9.23-10.65-7.45-15.62 2.84-7.45 7.45-7.45 8.87 3.55 8.52 7.1c0.02 6.3-8.52 15.97-8.52 15.97zM391.09 650.43s-9.23-10.65-7.45-15.62 2.84-7.45 7.45-7.45 8.87 3.55 8.52 7.1c0.02 6.3-8.52 15.97-8.52 15.97zM360.92 594.95c5.53 1.28 16.33-0.95 18.46-5.21s-4-15.62-12.07-16.33-18.69 8-18.69 12.39 6.15 7.73 12.3 9.15z"  horiz-adv-x="1024" />

    
    <glyph glyph-name="yezi-" unicode="&#58892;" d="M450.72 477.83c-42.29 21.86-144.5 220-171.65 198.22s-40.59-114.28 0.29-171.31 132-97 153.52-129.58 18.45-57.07 13.36-63.2S262.49 434 217.66 410.47s-28.41-84.69 17.56-132.54S427 244.61 455.57 223.24s32.72-55 20.49-55-145.88 32.38-192.77 24.15-68.25-39.89 0.12-73.42 180.26-8.87 199.28-28.21 6.8-28.54-7.47-29.58-110.14 4.91-143.78-0.24 6.21-56.07 23.57-69.3 80.59-19.24 98.94-16.15 36.67 26.58 51 20.48 3.14-45.88 8.25-53 46.92-9.1 53 0.09-10.26 37.71-0.09 51 32.65-11.16 66.28 1.13 109 70.55 111 104.2-132.52-27.76-167.19-26.8c-24.48 4-34.71 21.36-19.43 30.56s228.33 55.45 244.57 96.27 4 34.68-21.47 34.63S605.6 171.55 590.26 196 791 286 813.3 340.1s29.37 119.36-0.22 127.47-147.62-137.92-194.54-130.86-1.06 21.41 19.29 48 132.36 120.51 133.32 154.16 10.08 67.32-27.65 71.33-129.27-135.84-149.69-123.63 52.89 78.61 64 143.89S632.09 763 611.7 758.86s-19.37-4.11-19.34-22.47 10.33-79.52-1.85-114.21-13.14-60.18-23.35-54.08-10.27 43.83-4.2 73.41 23.3 92.83 13.07 112.19S545.27 847.47 467.8 828s-72.25-89.86-65-136.75 27.67-83.57 45.09-128.41 21.71-94.77 2.83-85.01z"  horiz-adv-x="1024" />

    
    <glyph glyph-name="xianrenzhang-" unicode="&#58893;" d="M687.86 176.29c0-147.56-52.67-244.17-107.85-239.54-90.51 7.59-59.07 105.14-69.91 264.47-10 147.22-14.09 266.64 52 268.81 83.51 2.73 125.76-146.18 125.76-293.74zM674.85 162.2c22.76 5.42 40.1 20.59 52 50.94s24.93 96.47 34.68 118.14S832 395.24 863.45 340s1.08-119.23-56.36-165.84-147.41-63.95-147.41-63.95zM603.18 410.32s31.14 42.49 30.48 119.34-47.31 117.91-40.39 143.07 58.43 56.06 104.54-15.14-3.29-156.66-17.3-183.68-58.34-80.22-58.34-80.22zM525.27 279.26c-69.37-1.08-140.91 90-148.49 149.58s10.84 176.68-34.68 240.63-122.48 91-156.08-15.17 58.52-252.56 86.71-288.3 172.34-146.35 251.46-148.52 1.08 61.78 1.08 61.78zM202.19 763.28s-5.85 53.34 1.81 66.25 38.25-44.69 38.3-49.12S259.36 829.3 265 828s8.73-64.13 8.73-64.13 33.91 46.81 38.39 42.44 1-56.75-20.49-82.81-57.68-49.09-90.23-33-44.7 85.05-38.78 100.39 39.57-27.61 39.57-27.61zM579.85 646.12c-2.59-5.76 42.4-33.83 47.95-20.91 10.02 23.34-44.43 28.72-47.95 20.91zM617.08 719.34c-5.2-3.6 18.85-50.86 30.27-42.66 20.65 14.81-23.23 47.53-30.27 42.66zM694 669.26c-6.3 0.45-17.17-51.45-3.13-52.21 25.36-1.38 11.68 51.59 3.13 52.21zM737 591.19c-3.41 5.32-51.51-17-43.72-28.71 14.02-21.15 48.3 21.52 43.72 28.71zM707.7 504.48c-3.41 5.32-51.51-17-43.72-28.71 14.02-21.16 48.33 21.49 43.72 28.71zM619.33 569.16c-4.33-4.61 29.09-45.78 38.54-35.37 17.06 18.81-32.67 41.62-38.54 35.37zM143 600.6c-2.59-5.76 42.4-33.83 47.95-20.91C201 603 146.56 608.41 143 600.6zM180.27 673.81c-5.2-3.6 18.85-50.86 30.27-42.66 20.63 14.85-23.23 47.54-30.27 42.66zM324.39 705c-6.3 0.45-17.17-51.45-3.13-52.21 25.37-1.35 11.68 51.62 3.13 52.21zM367.35 627c-3.41 5.32-51.51-17-43.72-28.71C337.69 577.1 372 619.74 367.35 627zM403.63 379.65c-6.24 1-21.44-49.83-7.52-51.77 25.17-3.5 15.99 50.44 7.52 51.77zM182.52 523.64c-4.33-4.61 29.09-45.78 38.54-35.37 17.06 18.81-32.67 41.61-38.54 35.37zM504.85 436.43c-5.44-3.22 15.24-52.06 27.2-44.68 21.62 13.33-19.83 49.05-27.2 44.68zM570.26 487c-6.29-0.6-8.43-53.58 5.54-52 25.2 2.82 2.99 52.81-5.54 52zM611.75 423.13c-6.28 0.73-19.45-50.64-5.46-52 25.28-2.53 13.98 51 5.46 52zM784.09 383c-6.28 0.73-19.45-50.64-5.46-52 25.28-2.5 13.98 51 5.46 52zM874 340.17c-5.58 3-36.51-40.12-24-46.49 22.64-11.51 31.54 42.47 24 46.49zM881 229.43c-0.93 6.25-54 5.59-51.65-8.28 4.21-25.05 52.95-0.15 51.65 8.28zM790.21 146.72c0.91 6.25-50.06 20.89-51.85 6.95-3.23-25.19 50.64-15.43 51.85-6.95zM791.37 228.57c-4.29 4.64-47.7-25.82-38-36 17.63-18.31 43.82 29.71 38 36zM741.46 293.7c-6.22-1.11-4-54.1 9.83-51.38 24.92 4.93-1.4 52.9-9.83 51.38zM547.89 370.64c-6-2 4.08-54.09 17.32-49.36 23.93 8.56-9.21 52.1-17.32 49.36zM555.74 263c-5.43-3.23 15.35-52 27.3-44.62 21.59 13.36-19.94 48.98-27.3 44.62zM551.16 148.45c-6-2 4-54.09 17.29-49.37 23.93 8.53-9.17 52.11-17.29 49.37zM610.12 11.57c-5 3.85-42.65-33.51-31.35-41.88 20.42-15.11 38.15 36.66 31.35 41.88zM681.37 55.67c-4.42 4.52-47-27.1-37-37 18.07-17.85 42.99 30.87 37 37zM631.45 113.5c-5.55 3-36.95-39.71-24.49-46.22 22.52-11.77 32.04 42.12 24.49 46.22zM652.41 213.57c-4.59 4.34-45.88-28.94-35.5-38.42 18.75-17.15 41.72 32.53 35.5 38.42zM697 299.46c-5.17 3.63-41.18-35.3-29.54-43.17 21.01-14.22 36.54 38.25 29.54 43.17zM490.83 334.17c-5.11-3.72 20-50.4 31.26-41.94 20.28 15.3-24.33 46.98-31.26 41.94zM268.56 522.05c-5.44-3.22 15.24-52.06 27.2-44.68 21.62 13.34-19.83 49.05-27.2 44.68zM266.77 626.82c-6.29-0.6-8.43-53.58 5.54-52 25.25 2.82 2.99 52.81-5.54 52zM358.29 488.45c-6.07 1.77-27.65-46.66-14.09-50.37 24.5-6.71 22.31 47.92 14.09 50.37zM239.11 400.86c-1.53-6.13 47.74-25.75 50.9-12 5.71 24.71-48.83 20.31-50.9 12zM385.15 272.59c-1.19-6.21 49.08-23.1 51.48-9.25 4.37 25.02-49.86 17.66-51.48 9.25zM313.37 360.71c-4.25-4.68 29.85-45.29 39.12-34.72 16.75 19.09-33.36 41.06-39.12 34.72zM504.9 200.31c-5.71-2.7 10.29-53.26 22.9-47 22.78 11.22-15.15 50.69-22.9 47zM525.21 87.09c-6.3-0.49-9.36-53.43 4.64-52.1 25.29 2.4 3.9 52.76-4.64 52.1zM669.73 366.41c-5.64 2.86-35.73-40.81-23.08-46.94 22.86-11.08 30.73 43.07 23.08 46.94z"  horiz-adv-x="1024" />

    
    <glyph glyph-name="xianrenzhang" unicode="&#58894;" d="M513.92 827.29h12A116.59 116.59 0 0 0 642.5 710.7v-728.84a41.15 41.15 0 0 0-41.15-41.15H438.48a41.15 41.15 0 0 0-41.15 41.15V710.7A116.59 116.59 0 0 0 513.92 827.29zM424 144c-53.89 0-131.52 8.8-183.29 84.94-41.15 60.51-60.32 156.89-60.32 303.31a57.1 57.1 0 1 0 114.19 0c0-119.08 13.64-199.53 40.55-239.1 14.68-21.58 34.66-35 88.86-35A57.1 57.1 0 1 0 424 144zM603.83 311.52a57.1 57.1 0 0 0 0 114.19c50.76 0 78.59 8.07 96 27.86 24.69 28 37.2 87.16 37.2 175.79a57.1 57.1 0 1 0 114.19 0c0-120.56-20.88-200.4-65.72-251.29-51.96-58.98-124.38-66.55-181.67-66.55zM438.25 720.71l33.56 0 0-83.94-33.56 0 0 83.94ZM232.017583 514.392035l33.493777 2.10725 5.270637-83.774363-33.493777-2.10725-5.270637 83.774363ZM220.695979 372.853435l32.46596 8.499119 21.257927-81.203597-32.46596-8.499118-21.257927 81.203596ZM290.392718 242.108754l16.78 29.063813 72.694172-41.97-16.78-29.063813-72.694172 41.97ZM733.163193 423.889287l15.584539-29.721975-74.340361-38.979922-15.584539 29.721974 74.340361 38.979923ZM788.434288 522.59357l31.341442-11.999483-30.013008-78.390962-31.341443 11.999482 30.013009 78.390963ZM763.93801 636.866848l33.412708-3.140781-7.855695-83.571596-33.412708 3.140781 7.855695 83.571596ZM438.25 509.46l33.56 0 0-83.94-33.56 0 0 83.94ZM438.25 296.3l33.56 0 0-83.94-33.56 0 0 83.94ZM438.25 85.04l33.56 0 0-83.94-33.56 0 0 83.94ZM507.72 785.42l33.56 0 0-83.94-33.56 0 0 83.94ZM507.72 574.16l33.56 0 0-83.94-33.56 0 0 83.94ZM507.72 361.01l33.56 0 0-83.94-33.56 0 0 83.94ZM507.72 149.75l33.56 0 0-83.94-33.56 0 0 83.94ZM568.62 701.68l33.56 0 0-83.94-33.56 0 0 83.94ZM568.62 490.42l33.56 0 0-83.94-33.56 0 0 83.94ZM568.62 277.26l33.56 0 0-83.94-33.56 0 0 83.94ZM568.62 66.01l33.56 0 0-83.94-33.56 0 0 83.94ZM183.54 645.32S200 568 239.21 568 299 633 299 633l-35.05-22.68-28.87 68-14.43-59.79z"  horiz-adv-x="1024" />

    
    <glyph glyph-name="xingzhuangdianzhui" unicode="&#58895;" d="M433.91 259.18l-55.33-61.61 55.33-23.9v85.51zM191.91 263.18l-55.33-61.61 55.33-23.9v85.51zM467.17 493.23l-55.33-61.62 55.33-23.89v85.51zM655.17 75.23l-55.33-61.62 55.33-23.89v85.51zM405.17 697.23l-55.33-61.62 55.33-23.89v85.51zM275.17 645.23l-55.33-61.62 55.33-23.89v85.51zM660.01 447.92l-55.33-61.62 55.33-23.89v85.51zM758.04 324.86l-55.33-61.62 55.33-23.89v85.51zM862.59 537.6l-55.33-61.62 55.33-23.89V537.6zM669.67 606.18l-55.33-61.62 55.33-23.89v85.51zM513.17 812.06l-55.33-61.61 55.33-23.9V812.06zM200.88 489.18l-55.33-61.62 55.33-23.89v85.51zM321.3 341.65l-55.32-61.62 55.32-23.89v85.51zM479.67 41.45l-55.33-61.62 55.33-23.89v85.51zM797.42 665.13l-55.33-61.62 55.33-23.89v85.51zM515.17 664.06l-55.33-61.61 55.33-23.9v85.51zM641.17 746.06l-55.33-61.61 55.33-23.9v85.51zM332.23 541.64l-55.33-61.61 55.33-23.89v85.5zM582.11 324.11l-55.33-61.61 55.33-23.89v85.5zM621.67 185.45l-55.33-61.62 55.33-23.89v85.51zM344.11 150.11l-55.32-61.61 55.32-23.89v85.5zM805.82 174.19l-55.33-61.62 55.33-23.89v85.51zM887.42 371.13l-55.33-61.62 55.33-23.89v85.51z"  horiz-adv-x="1024" />

    
    <glyph glyph-name="xueshan-" unicode="&#58896;" d="M512 797.77L104.84-29.77h814.32L512 797.77zM512 797.77L367.43 503.94l88.04 53.75 15.96-49.9 17.97 31.93 23.95-49.9 29.94 71.86 43.91-61.88 13.97 41.92 61.86-50.92L512 797.77zM430.02 356.6m-25.45 0a25.45 25.45 0 1 1 50.9 0 25.45 25.45 0 1 1-50.9 0ZM600.88 399.46m-25.45 0a25.45 25.45 0 1 1 50.9 0 25.45 25.45 0 1 1-50.9 0ZM523.55 206.71m-25.45 0a25.45 25.45 0 1 1 50.9 0 25.45 25.45 0 1 1-50.9 0ZM259.77 120.7m-25.45 0a25.45 25.45 0 1 1 50.9 0 25.45 25.45 0 1 1-50.9 0ZM414.63 51.77m-25.45 0a25.45 25.45 0 1 1 50.9 0 25.45 25.45 0 1 1-50.9 0ZM720.33 142m-25.45 0a25.45 25.45 0 1 1 50.9 0 25.45 25.45 0 1 1-50.9 0Z"  horiz-adv-x="1024" />

    
    <glyph glyph-name="yezi-1" unicode="&#58897;" d="M859.29 755.72c-5.31 15.34-79.28 7-116-9.42s-163.34-116.58-188.52-172-17.35-64.14-30-84.29-17.1-33.3-22.12-27.66-2.24 16.66 7.83 36.5 28 55 32.21 78.58-10.15 111.32-11.56 147.31-15.46 105.8-33.6 106.37-69.25-69.39-75.15-122.11-17.46-139.43 4.21-195.12 34.11-42.14 41.25-66.88-14-82.5-40.95-117.38-37-46.84-48.27-43.18-17 29-9.06 46.76 26.22 37.12 26.48 61.55-9.33 113.22-15.22 136.06S360 604.13 358 623.66s2.85 67.45-10.61 72.41c-23.69 7.57-57.39-50.77-76.1-132.25s6.86-148 15.18-161.37 27.85-46.23 41.65-61.22 25.81-20.89 29.44-46.57 5.44-38.52-9.79-74.66-66.06-149.34-83-166.45c-4.19 42.4 6.47 30.15 7.41 63.57s-3.05 43.81 3 74.05-21.14 139.41-46 168.41c-12.13 15.05-8 53.59-15.32 54.33s-9.44 2.44-13.92-22.33-43-102-34.27-169.44 12.82-73.72 21.86-87.69 21.56-23.3 31.14-50.25 10.82-40.5 20.73-48.44-16.17-92.81-16.17-92.81l28.17-6s24.82 125.4 50.13 137 37.28-17.63 83.27-17.95 103.84 15.91 129.29 26.22 41.21 16.06 66.32 36.4 56.41 67.58 74.87 89.77 31.63 25.58 25.85 33.46-33.3 3.41-61 1.88-114.7-6.52-178.61-29.73-85.12-71.8-96.12-84.38-14.63-27.62-24.49-21.32-4.73 14.71 1.28 23.38 78.23 177 162.4 192.17c40.67 5.8 37.86-24.72 92.36-26s138.9 18.76 202.48 98.5c47.14 59.19 61 113.91 66.63 121s-28.71 13.21-53.39 6.47-35-16.15-58.92-19.32S607 493.89 563.34 453s-47.73-91-66.93-103.09-41.9-25-44.33-17.05 42.39 100.88 78.53 141.68c11.65 13.69 29 5.41 67.11 24.61s144 102.73 174.92 136.36 32.09 58.69 57.77 79.74 30.84 34.75 28.88 40.47zM207.57 377c-11.4-41.54-7.11-122.14 1.1-161.26s31.48-151.17 31.48-151.17-17 118.18-24.28 165.4-8.3 147.03-8.3 147.03zM322.07 655.44C306.49 606.49 307.36 525 310.53 501s25.7-143.29 39-158.6c-17.27 74.25-28.49 121-33.21 164.41-4.65 43.1-0.32 77.72 5.75 148.63zM641.9 224.46c-33.45-39-103.26-81.1-125.27-91S381.22 80 361.2 83.29c72.25 24.34 117.88 39.36 157.31 58.18 39.09 18.66 66.27 40.53 123.39 82.99zM486 800.39c-10.09-27.71-43.91-204.72-21.09-280.17C450.33 607.18 486 800.39 486 800.39zM792.13 714.79c-39.45-21.42-213.55-167.5-225.74-185.64 33.42 22.3 225.74 185.64 225.74 185.64zM808.82 484.35c-18.6-24.78-170.91-157-273.46-145 159.64 32.19 273.46 145 273.46 145z"  horiz-adv-x="1024" />

    
    <glyph glyph-name="yezi-2" unicode="&#58898;" d="M329.38 828.95c-26.8-9.6-72.36-203-56.59-258 27.91-14 80.76-23 97.78-40.31-32.83 2.62-100.33 1.11-100.33 1.11L281.79 418l112.44-19.84-103.86-19.72 31.86-101.18 107.23-5.72-85.31-30.19L406 139.24l118.66 2.94-85.22-26.58 40.32-58.16 91.58-13.23-48.86-22.91s47.69-61.08 89.49-70.68 78.92-19.75 93.5-12.85 45.83 88.11 47.68 124.78 1.18 64 1.18 64l-24.78-17.71 20.89 73.17-27 73.57L699 199.72l11.39 94.8-56.5 75.27L612 286l21.76 122.79-48 76.57-46.52-80.67L567 529.53l-57.65 81-36.85-75.16 19.53 108-60.57 63.69-24.8-57.59-4.33 93.66s-41.17 45.09-55 80.89c-4.77 15.56-17.95 4.93-17.95 4.93z"  horiz-adv-x="1024" />

    
    <glyph glyph-name="yezi-3" unicode="&#58899;" d="M854.29-61.76c9.37-12.88 1.84 31.2 12.85 62.4s27.53 51.36 27.53 102.78-47.72 141.32-69.74 200.05-16.52 91.77-66.07 170.69-112 163.34-176.19 194.55-77.09 102.78-154.18 135.81S193.57 788 129.33 832.05c130.31-134 148.66-268 211.06-365.23s84.43-62.4 150.5-143.16 33.14-88 97.27-179.86c74.34-106.45 192.72-104.61 266.13-205.56z"  horiz-adv-x="1024" />

    
    <glyph glyph-name="yezi-4" unicode="&#58900;" d="M179.44 489.6c14.06 5.76 17.53 101.63 46.87 137.58s18.84-27.54 42.56-17.82S318 713.85 387.5 756.2c15.61 9.54 24.58-3.15 20.06-18.22s-16.08-29.89-0.32-39.17 41.15 47.08 79.71 66.67 55.6 13.34 61.22 1.17-17.78-21.14-3.22-29 39.32 19.27 67.8 29.68 51.87 19.37 60.41 7.76-13.27-16.77 0.14-29.53 54.49 29.89 89.24 40.35 5.8-20.29 20.73-33.69 43.11 7 64.9 1.41 12.51-21.31 34.73-38.65 66.28-8.09 75.57-20-16.38-19.98-31.15-63.83-1.45-71.74-18.1-98.71-80.51-49.36-79.71-66.67 55 2 46-15.68-31-42.4-53.52-53.52-60-13.27-64.37-25.75 45.67-14.65 41.66-26.37c-6.13-18.86-85.82-36.45-97.77-56.45s49.06-32.15 31.74-43.65-81.51-7-97.7-24.3 54.86-14 41.08-34.16-38.39-27.7-67.87-34.11-60 1.87-66.07-17 65.61-31 48.09-45.14-99.73 11.36-115.09-1.83 43.25-22.57 13.94-37.1-117.23 8-131.34-12.9 81-13.38 46.32-40.83-149.15-17.06-183.47-0.9C137.53 31 78.73 142.34 69.38 198.95s-6.24 59.77 0.76 76.49 36.32-34.85 30.95 12.05S71.91 347.94 82 384.81s22.07-26.21 26.46 18.4 3.14 103.59 28.71 118.12c40.08 22.78 22.83-39.68 42.27-31.73zM845.45 675.26c-65.39 5.94-617.74-280.88-682.78-521.6 128.65 187.47 682.78 521.6 682.78 521.6z"  horiz-adv-x="1024" />

    


  </font>
</defs>
</svg>
